<?xml version="1.0" encoding="UTF-8"?>
<svg xmlns="http://www.w3.org/2000/svg" xmlns:xlink="http://www.w3.org/1999/xlink" width="595.276pt" height="156.714pt" viewBox="0 0 595.276 156.714" version="1.1">
<g id="surface1">
<path style=" stroke:none;fill-rule:nonzero;fill:rgb(14.001465%,26.159668%,49.362183%);fill-opacity:1;" d="M 105.179688 130.613281 L 25.28125 130.613281 L 124.484375 31.410156 L 124.484375 111.308594 C 124.484375 121.96875 115.839844 130.613281 105.179688 130.613281 "/>
<path style=" stroke:none;fill-rule:nonzero;fill:rgb(72.451782%,77.046204%,81.613159%);fill-opacity:1;" d="M 44.585938 31.410156 L 124.484375 31.410156 C 124.484375 31.410156 103.425781 62.4375 80.054688 87.726563 C 57.617188 112.015625 25.28125 130.613281 25.28125 130.613281 L 25.28125 50.714844 C 25.28125 40.050781 33.921875 31.410156 44.585938 31.410156 "/>
<path style=" stroke:none;fill-rule:nonzero;fill:rgb(14.001465%,26.159668%,49.362183%);fill-opacity:1;" d="M 184.4375 53.347656 C 184.4375 47.761719 179.90625 43.144531 174.320313 43.144531 L 159.101563 43.144531 L 159.101563 63.304688 L 174.320313 63.304688 C 179.988281 63.304688 184.4375 58.851563 184.4375 53.347656 M 196.175781 53.347656 C 196.175781 65.40625 186.460938 75.039063 174.320313 75.039063 L 159.101563 75.039063 L 159.101563 91.3125 L 147.363281 91.3125 L 147.363281 37.398438 C 147.363281 34.160156 150.117188 31.410156 153.433594 31.410156 L 174.320313 31.410156 C 186.460938 31.410156 196.175781 41.285156 196.175781 53.347656 "/>
<path style=" stroke:none;fill-rule:nonzero;fill:rgb(14.001465%,26.159668%,49.362183%);fill-opacity:1;" d="M 230.789063 60.875 L 249.410156 60.875 C 254.347656 60.875 258.3125 56.988281 258.3125 52.132813 C 258.3125 47.195313 254.347656 43.144531 249.410156 43.144531 L 230.789063 43.144531 Z M 243.417969 71.800781 L 230.789063 71.800781 L 230.789063 91.3125 L 219.054688 91.3125 L 219.054688 37.398438 C 219.054688 34.160156 221.804688 31.410156 225.125 31.410156 L 249.410156 31.410156 C 260.824219 31.410156 270.050781 40.71875 270.050781 52.132813 C 270.050781 61.277344 264.140625 68.320313 255.964844 70.832031 L 270.375 91.3125 L 256.9375 91.3125 Z M 243.417969 71.800781 "/>
<path style=" stroke:none;fill-rule:nonzero;fill:rgb(14.001465%,26.159668%,49.362183%);fill-opacity:1;" d="M 341.980469 61.117188 C 341.980469 50.511719 333.402344 41.933594 322.878906 41.933594 C 312.355469 41.933594 303.777344 50.511719 303.777344 61.117188 C 303.777344 71.722656 312.355469 80.464844 322.878906 80.464844 C 333.402344 80.464844 341.902344 71.800781 341.980469 61.117188 M 292.039063 61.117188 C 292.039063 43.957031 305.878906 30.277344 322.878906 30.277344 C 339.554688 30.277344 353.636719 43.632813 353.636719 61.117188 C 353.636719 78.277344 339.878906 92.121094 322.878906 92.121094 C 305.878906 92.121094 292.039063 78.277344 292.039063 61.117188 "/>
<path style=" stroke:none;fill-rule:nonzero;fill:rgb(14.001465%,26.159668%,49.362183%);fill-opacity:1;" d="M 424.84375 85.238281 L 424.84375 91.3125 L 384.125 91.3125 C 382.101563 91.3125 380.5625 89.773438 380.5625 87.828125 L 380.5625 31.410156 L 386.636719 31.410156 L 386.636719 85.238281 Z M 424.84375 85.238281 "/>
<path style=" stroke:none;fill-rule:nonzero;fill:rgb(14.001465%,26.159668%,49.362183%);fill-opacity:1;" d="M 491.429688 91.3125 L 470.304688 41.121094 L 448.855469 91.3125 L 442.050781 91.3125 L 467.148438 32.542969 C 467.792969 31.164063 469.007813 30.355469 470.304688 30.355469 C 471.679688 30.355469 472.894531 31.164063 473.460938 32.542969 L 498.3125 91.3125 Z M 491.429688 91.3125 "/>
<path style=" stroke:none;fill-rule:nonzero;fill:rgb(14.001465%,26.159668%,49.362183%);fill-opacity:1;" d="M 516.734375 86.292969 L 519.328125 80.707031 C 526.371094 84.347656 533.816406 86.046875 542.074219 86.046875 C 555.1875 86.046875 563.28125 81.273438 563.28125 74.636719 C 563.28125 65.648438 553.40625 64.273438 542.800781 63.140625 C 530.984375 61.925781 517.546875 60.957031 517.546875 47.679688 C 517.546875 37.074219 528.394531 30.4375 543.773438 30.4375 C 551.625 30.4375 559.800781 32.136719 566.601563 35.050781 L 564.253906 40.554688 C 558.019531 37.882813 550.816406 36.347656 543.773438 36.347656 C 531.632813 36.347656 523.78125 40.3125 523.78125 47.679688 C 523.78125 55.9375 533.492188 56.421875 543.125 57.394531 C 555.589844 58.605469 569.433594 60.632813 569.433594 74.636719 C 569.433594 84.996094 558.183594 92.121094 542.074219 92.121094 C 532.925781 92.121094 524.671875 90.257813 516.734375 86.292969 "/>
<path style=" stroke:none;fill-rule:nonzero;fill:rgb(14.001465%,26.159668%,49.362183%);fill-opacity:1;" d="M 155.152344 117.820313 C 155.003906 117.449219 154.78125 117.101563 154.410156 116.78125 C 153.890625 116.363281 153.351563 116.191406 152.632813 116.191406 C 151.101563 116.191406 150.3125 117.101563 150.3125 118.164063 C 150.3125 118.660156 150.484375 119.523438 152.089844 120.164063 L 153.742188 120.832031 C 156.78125 122.066406 157.617188 123.792969 157.617188 125.667969 C 157.617188 128.804688 155.398438 130.953125 152.3125 130.953125 C 150.410156 130.953125 149.277344 130.238281 148.4375 129.296875 C 147.546875 128.308594 147.152344 127.222656 147.054688 126.089844 L 149.546875 125.546875 C 149.546875 126.359375 149.84375 127.125 150.238281 127.644531 C 150.707031 128.238281 151.398438 128.632813 152.386719 128.632813 C 153.917969 128.632813 155.101563 127.519531 155.101563 125.867188 C 155.101563 124.1875 153.816406 123.496094 152.730469 123.050781 L 151.152344 122.386719 C 149.792969 121.820313 147.792969 120.683594 147.792969 118.214844 C 147.792969 115.992188 149.523438 113.871094 152.609375 113.871094 C 154.386719 113.871094 155.398438 114.535156 155.917969 114.980469 C 156.359375 115.375 156.828125 115.945313 157.175781 116.632813 Z M 155.152344 117.820313 "/>
<path style=" stroke:none;fill-rule:nonzero;fill:rgb(14.001465%,26.159668%,49.362183%);fill-opacity:1;" d="M 184.039063 120.683594 L 191.097656 120.683594 L 191.097656 114.167969 L 193.617188 114.167969 L 193.617188 130.632813 L 191.097656 130.632813 L 191.097656 123.054688 L 184.039063 123.054688 L 184.039063 130.632813 L 181.519531 130.632813 L 181.519531 114.167969 L 184.039063 114.167969 Z M 184.039063 120.683594 "/>
<path style=" stroke:none;fill-rule:nonzero;fill:rgb(14.001465%,26.159668%,49.362183%);fill-opacity:1;" d="M 226.972656 124.289063 L 224.527344 118.707031 L 221.984375 124.289063 Z M 227.984375 126.65625 L 220.949219 126.65625 L 219.144531 130.632813 L 216.429688 130.632813 L 224.625 113.203125 L 232.425781 130.632813 L 229.710938 130.632813 Z M 227.984375 126.65625 "/>
<path style=" stroke:none;fill-rule:nonzero;fill:rgb(14.001465%,26.159668%,49.362183%);fill-opacity:1;" d="M 257.761719 121.621094 L 258.894531 121.621094 C 261.066406 121.621094 262.105469 120.558594 262.105469 119.03125 C 262.105469 118.117188 261.734375 116.484375 258.871094 116.484375 L 257.761719 116.484375 Z M 258.871094 114.167969 C 259.882813 114.167969 261.289063 114.265625 262.472656 115.054688 C 263.855469 115.96875 264.523438 117.546875 264.523438 119.054688 C 264.523438 120.015625 264.277344 121.496094 262.917969 122.660156 C 261.609375 123.769531 260.105469 123.941406 258.894531 123.941406 L 257.761719 123.941406 L 257.761719 130.632813 L 255.242188 130.632813 L 255.242188 114.167969 Z M 258.871094 114.167969 "/>
<path style=" stroke:none;fill-rule:nonzero;fill:rgb(14.001465%,26.159668%,49.362183%);fill-opacity:1;" d="M 290.347656 130.632813 L 287.832031 130.632813 L 287.832031 114.164063 L 290.347656 114.164063 Z M 290.347656 130.632813 "/>
<path style=" stroke:none;fill-rule:nonzero;fill:rgb(14.001465%,26.159668%,49.362183%);fill-opacity:1;" d="M 315.039063 130.632813 L 315.039063 113.054688 L 326.984375 125.570313 L 326.984375 114.167969 L 329.503906 114.167969 L 329.503906 131.644531 L 317.554688 119.128906 L 317.554688 130.632813 Z M 315.039063 130.632813 "/>
<path style=" stroke:none;fill-rule:nonzero;fill:rgb(14.001465%,26.159668%,49.362183%);fill-opacity:1;" d="M 362.710938 122.066406 L 369.5 122.066406 L 369.5 122.1875 C 369.5 125.003906 368.660156 127.296875 367.058594 128.855469 C 365.351563 130.507813 363.328125 130.953125 361.453125 130.953125 C 359.058594 130.953125 357.355469 130.261719 355.847656 128.707031 C 354.242188 127.050781 353.40625 124.855469 353.40625 122.484375 C 353.40625 119.917969 354.441406 117.695313 355.800781 116.339844 C 357.207031 114.90625 359.453125 113.871094 361.996094 113.871094 C 363.476563 113.871094 365.007813 114.191406 366.289063 114.90625 C 367.648438 115.671875 368.484375 116.632813 368.957031 117.375 L 366.957031 118.78125 C 366.464844 118.089844 365.722656 117.351563 364.933594 116.90625 C 364.019531 116.363281 363.03125 116.191406 362.019531 116.191406 C 359.871094 116.191406 358.488281 117.078125 357.675781 117.894531 C 356.589844 118.980469 355.921875 120.734375 355.921875 122.507813 C 355.921875 124.164063 356.539063 125.816406 357.625 126.976563 C 358.761719 128.1875 360.167969 128.632813 361.746094 128.632813 C 363.179688 128.632813 364.363281 128.210938 365.425781 127.175781 C 366.339844 126.285156 366.710938 125.324219 366.808594 124.386719 L 362.710938 124.386719 Z M 362.710938 122.066406 "/>
<path style=" stroke:none;fill-rule:nonzero;fill:rgb(14.001465%,26.159668%,49.362183%);fill-opacity:1;" d="M 419.398438 130.632813 L 422.855469 112.933594 L 428.582031 125.71875 L 434.359375 112.933594 L 437.46875 130.632813 L 434.902344 130.632813 L 433.222656 120.707031 L 428.433594 131.394531 L 423.695313 120.683594 L 421.964844 130.632813 Z M 419.398438 130.632813 "/>
<path style=" stroke:none;fill-rule:nonzero;fill:rgb(14.001465%,26.159668%,49.362183%);fill-opacity:1;" d="M 470.75 116.535156 L 464.183594 116.535156 L 464.183594 120.707031 L 470.554688 120.707031 L 470.554688 123.078125 L 464.183594 123.078125 L 464.183594 128.261719 L 470.75 128.261719 L 470.75 130.632813 L 461.664063 130.632813 L 461.664063 114.167969 L 470.75 114.167969 Z M 470.75 116.535156 "/>
<path style=" stroke:none;fill-rule:nonzero;fill:rgb(14.001465%,26.159668%,49.362183%);fill-opacity:1;" d="M 499.316406 116.535156 L 499.316406 130.632813 L 496.796875 130.632813 L 496.796875 116.535156 L 493.023438 116.535156 L 493.023438 114.167969 L 503.09375 114.167969 L 503.09375 116.535156 Z M 499.316406 116.535156 "/>
<path style=" stroke:none;fill-rule:nonzero;fill:rgb(14.001465%,26.159668%,49.362183%);fill-opacity:1;" d="M 533.734375 124.289063 L 531.289063 118.707031 L 528.746094 124.289063 Z M 534.746094 126.65625 L 527.710938 126.65625 L 525.910156 130.632813 L 523.191406 130.632813 L 531.386719 113.203125 L 539.1875 130.632813 L 536.472656 130.632813 Z M 534.746094 126.65625 "/>
<path style=" stroke:none;fill-rule:nonzero;fill:rgb(14.001465%,26.159668%,49.362183%);fill-opacity:1;" d="M 564.519531 114.167969 L 564.519531 128.261719 L 569.359375 128.261719 L 569.359375 130.632813 L 562.003906 130.632813 L 562.003906 114.167969 Z M 564.519531 114.167969 "/>
</g>
</svg>
